<svg width="30" height="30" viewBox="0 0 30 30" fill="none" xmlns="http://www.w3.org/2000/svg">
<path d="M15 4.09091C13.9511 4.09091 12.9259 4.40661 12.0538 4.99807C11.1817 5.58954 10.502 6.43021 10.1006 7.41379C9.69925 8.39736 9.59423 9.47966 9.79885 10.5238C10.0035 11.568 10.5085 12.5271 11.2502 13.2799C11.9918 14.0327 12.9367 14.5453 13.9654 14.753C14.9941 14.9607 16.0604 14.8541 17.0294 14.4467C17.9984 14.0393 18.8266 13.3494 19.4093 12.4642C19.992 11.579 20.303 10.5383 20.303 9.47369C20.303 8.04609 19.7443 6.67696 18.7498 5.66749C17.7553 4.65802 16.4064 4.09091 15 4.09091V4.09091ZM15 12.7034C14.3707 12.7034 13.7555 12.5139 13.2323 12.1591C12.709 11.8042 12.3012 11.2998 12.0604 10.7096C11.8195 10.1195 11.7565 9.4701 11.8793 8.84361C12.0021 8.21712 12.3051 7.64165 12.7501 7.18997C13.1951 6.73829 13.762 6.4307 14.3792 6.30608C14.9965 6.18146 15.6362 6.24542 16.2176 6.48987C16.799 6.73431 17.2959 7.14827 17.6456 7.67938C17.9952 8.2105 18.1818 8.83492 18.1818 9.47369C18.1818 10.3302 17.8466 11.1517 17.2499 11.7574C16.6532 12.3631 15.8439 12.7034 15 12.7034V12.7034ZM24.5454 24.5455V23.4689C24.5454 21.4703 23.7632 19.5535 22.3709 18.1402C20.9786 16.727 19.0902 15.933 17.1212 15.933H12.8788C10.9097 15.933 9.02135 16.727 7.62904 18.1402C6.23672 19.5535 5.45453 21.4703 5.45453 23.4689V24.5455H7.57574V23.4689C7.57574 22.0413 8.13445 20.6722 9.12896 19.6627C10.1235 18.6532 11.4723 18.0861 12.8788 18.0861H17.1212C18.5276 18.0861 19.8765 18.6532 20.871 19.6627C21.8655 20.6722 22.4242 22.0413 22.4242 23.4689V24.5455H24.5454Z" fill="#FF3C20"/>
</svg>
