<svg width="42" height="42" viewBox="0 0 44 44" fill="none" xmlns="http://www.w3.org/2000/svg">
<path d="M22 3.66675C20.187 3.66675 18.4147 4.20436 16.9073 5.21161C15.3998 6.21886 14.2249 7.65049 13.5311 9.32548C12.8373 11.0005 12.6558 12.8436 13.0095 14.6217C13.3632 16.3999 14.2362 18.0332 15.5182 19.3152C16.8002 20.5972 18.4335 21.4702 20.2117 21.8239C21.9898 22.1776 23.8329 21.9961 25.5079 21.3023C27.1829 20.6085 28.6146 19.4336 29.6218 17.9261C30.6291 16.4187 31.1667 14.6464 31.1667 12.8334C31.1667 10.4023 30.2009 8.07069 28.4818 6.3516C26.7627 4.63252 24.4312 3.66675 22 3.66675V3.66675ZM22 18.3334C20.9122 18.3334 19.8488 18.0108 18.9444 17.4065C18.0399 16.8021 17.3349 15.9432 16.9187 14.9382C16.5024 13.9332 16.3935 12.8273 16.6057 11.7604C16.8179 10.6935 17.3417 9.71352 18.1109 8.94433C18.8801 8.17514 19.8601 7.65131 20.927 7.4391C21.9939 7.22688 23.0998 7.3358 24.1048 7.75208C25.1098 8.16836 25.9687 8.87331 26.5731 9.77778C27.1774 10.6822 27.5 11.7456 27.5 12.8334C27.5 14.2921 26.9205 15.6911 25.8891 16.7225C24.8576 17.754 23.4587 18.3334 22 18.3334V18.3334ZM38.5 38.5001V36.6667C38.5 33.2631 37.1479 29.9989 34.7412 27.5922C32.3345 25.1855 29.0703 23.8334 25.6667 23.8334H18.3333C14.9297 23.8334 11.6655 25.1855 9.2588 27.5922C6.85208 29.9989 5.5 33.2631 5.5 36.6667V38.5001H9.16667V36.6667C9.16667 34.2356 10.1324 31.904 11.8515 30.1849C13.5706 28.4659 15.9022 27.5001 18.3333 27.5001H25.6667C28.0978 27.5001 30.4294 28.4659 32.1485 30.1849C33.8676 31.904 34.8333 34.2356 34.8333 36.6667V38.5001H38.5Z" fill="#FF3C20"/>
</svg>
