<svg width="32" height="32" viewBox="0 0 32 32" fill="none" xmlns="http://www.w3.org/2000/svg">
<path d="M12.7273 26.1818C13.7314 26.1818 14.5455 25.3678 14.5455 24.3636C14.5455 23.3595 13.7314 22.5454 12.7273 22.5454C11.7231 22.5454 10.9091 23.3595 10.9091 24.3636C10.9091 25.3678 11.7231 26.1818 12.7273 26.1818Z" fill="#FF3C20"/>
<path d="M23.2727 26.1818C24.076 26.1818 24.7273 25.3678 24.7273 24.3636C24.7273 23.3595 24.076 22.5454 23.2727 22.5454C22.4694 22.5454 21.8182 23.3595 21.8182 24.3636C21.8182 25.3678 22.4694 26.1818 23.2727 26.1818Z" fill="#FF3C20"/>
<path d="M27.4595 6.44552C27.391 6.36005 27.3046 6.291 27.2066 6.24334C27.1086 6.19568 27.0013 6.17058 26.8926 6.16985H11.5626L12.0412 7.65993H25.928L23.962 16.6004H12.9174L9.55244 5.81968C9.51605 5.70529 9.45284 5.6015 9.36822 5.51717C9.2836 5.43285 9.18008 5.37048 9.06648 5.33541L6.0476 4.39666C5.95478 4.36779 5.85724 4.35771 5.76057 4.36699C5.66389 4.37627 5.56997 4.40472 5.48416 4.45073C5.31086 4.54365 5.18114 4.70241 5.12353 4.89211C5.06593 5.0818 5.08515 5.28688 5.17698 5.46223C5.2688 5.63758 5.42571 5.76884 5.61318 5.82713L8.25654 6.64668L11.6362 17.4498L10.4287 18.4481L10.3329 18.545C10.0342 18.8933 9.86493 19.3361 9.85418 19.7971C9.84343 20.2581 9.9919 20.7085 10.274 21.0707C10.4747 21.3176 10.7297 21.5136 11.0187 21.643C11.3076 21.7723 11.6225 21.8315 11.9381 21.8157H24.2271C24.4224 21.8157 24.6097 21.7372 24.7478 21.5975C24.8859 21.4578 24.9634 21.2682 24.9634 21.0707C24.9634 20.8731 24.8859 20.6835 24.7478 20.5438C24.6097 20.4041 24.4224 20.3256 24.2271 20.3256H11.8203C11.7355 20.3227 11.6529 20.2977 11.5804 20.253C11.508 20.2083 11.4481 20.1455 11.4067 20.0706C11.3652 19.9957 11.3436 19.9113 11.3438 19.8254C11.344 19.7396 11.3661 19.6553 11.4079 19.5806L13.1825 18.0905H24.5511C24.7213 18.0947 24.8877 18.0391 25.0219 17.9331C25.1562 17.8272 25.25 17.6774 25.2874 17.5094L27.6215 7.0788C27.6439 6.96773 27.641 6.85295 27.6129 6.74321C27.5848 6.63346 27.5324 6.53165 27.4595 6.44552V6.44552Z" fill="#FF3C20"/>
</svg>
