<svg width="42" height="42" viewBox="0 0 44 44" fill="none" xmlns="http://www.w3.org/2000/svg">
<path d="M7.2912 18.04C7.36495 17.1211 7.78208 16.2638 8.45954 15.6386C9.13699 15.0135 10.0251 14.6665 10.9469 14.6667H33.0532C33.975 14.6665 34.8631 15.0135 35.5405 15.6386C36.218 16.2638 36.6351 17.1211 36.7089 18.04L38.181 36.3733C38.2215 36.8778 38.1571 37.3853 37.9919 37.8637C37.8266 38.3421 37.5641 38.7811 37.2209 39.1531C36.8777 39.5251 36.4612 39.822 35.9976 40.0251C35.534 40.2282 35.0333 40.3332 34.5272 40.3333H9.47287C8.96672 40.3332 8.46609 40.2282 8.00249 40.0251C7.5389 39.822 7.12237 39.5251 6.77914 39.1531C6.43592 38.7811 6.17342 38.3421 6.00818 37.8637C5.84294 37.3853 5.77854 36.8778 5.81903 36.3733L7.2912 18.04V18.04Z" stroke="#FF0000" stroke-width="2.58824" stroke-linecap="round" stroke-linejoin="round"/>
<path d="M29.3333 20.1667V11C29.3333 9.05507 28.5607 7.18981 27.1854 5.81454C25.8102 4.43927 23.9449 3.66666 22 3.66666C20.0551 3.66666 18.1898 4.43927 16.8145 5.81454C15.4393 7.18981 14.6667 9.05507 14.6667 11V20.1667" stroke="#FF0000" stroke-width="2.58824" stroke-linecap="round" stroke-linejoin="round"/>
</svg>
