<svg width="30" height="30" viewBox="0 0 30 30" fill="none" xmlns="http://www.w3.org/2000/svg">
<path d="M6.79469 12.7909C6.83583 12.2783 7.06853 11.8 7.44645 11.4513C7.82437 11.1026 8.31978 10.909 8.83401 10.9091H21.166C21.6803 10.909 22.1757 11.1026 22.5536 11.4513C22.9315 11.8 23.1642 12.2783 23.2054 12.7909L24.0266 23.0182C24.0492 23.2996 24.0133 23.5827 23.9211 23.8496C23.8289 24.1165 23.6825 24.3614 23.491 24.5689C23.2995 24.7764 23.0672 24.942 22.8086 25.0553C22.5499 25.1686 22.2707 25.2272 21.9883 25.2273H8.01174C7.72939 25.2272 7.45011 25.1686 7.19149 25.0553C6.93287 24.942 6.70051 24.7764 6.50904 24.5689C6.31757 24.3614 6.17114 24.1165 6.07896 23.8496C5.98678 23.5827 5.95086 23.2996 5.97344 23.0182L6.79469 12.7909V12.7909Z" stroke="#FF3C20" stroke-width="2.58824" stroke-linecap="round" stroke-linejoin="round"/>
<path d="M19.0909 13.9773V8.86364C19.0909 7.77867 18.6599 6.73813 17.8927 5.97093C17.1255 5.20374 16.085 4.77274 15 4.77274C13.915 4.77274 12.8745 5.20374 12.1073 5.97093C11.3401 6.73813 10.9091 7.77867 10.9091 8.86364V13.9773" stroke="#FF3C20" stroke-width="2.58824" stroke-linecap="round" stroke-linejoin="round"/>
</svg>
