<svg width="187" height="32" viewBox="0 0 187 32" fill="none" xmlns="http://www.w3.org/2000/svg">
<path d="M17.0385 25.5089H13.1484L5.57577 13.0866V25.5089H1.6857V6.62907H5.57577L13.1614 19.0773V6.62907H17.0385V25.5089ZM26.647 25.7682C24.5896 25.7682 22.9125 25.1372 21.6158 23.8751C20.3278 22.6129 19.6838 20.9316 19.6838 18.8309V18.4679C19.6838 17.0588 19.9561 15.801 20.5007 14.6945C21.0453 13.5793 21.8147 12.7235 22.8088 12.127C23.8116 11.5219 24.9526 11.2194 26.232 11.2194C28.1511 11.2194 29.6596 11.8245 30.7575 13.0347C31.864 14.245 32.4173 15.9609 32.4173 18.1826V19.7127H23.4831C23.6041 20.629 23.9672 21.3638 24.5723 21.917C25.186 22.4703 25.9597 22.7469 26.8934 22.7469C28.337 22.7469 29.4651 22.2239 30.2777 21.1779L32.119 23.2397C31.5571 24.035 30.7964 24.6574 29.8368 25.1069C28.8773 25.5478 27.814 25.7682 26.647 25.7682ZM26.2191 14.2536C25.4756 14.2536 24.8705 14.5043 24.4037 15.0057C23.9455 15.5071 23.6516 16.2246 23.522 17.1582H28.7347V16.86C28.7174 16.0301 28.4926 15.3904 28.0604 14.9409C27.6281 14.4827 27.0144 14.2536 26.2191 14.2536ZM39.8992 15.667L42.2591 11.4787H46.2659L42.2721 18.3512L46.4345 25.5089H42.4147L39.9121 21.1001L37.4225 25.5089H33.3898L37.5521 18.3512L33.5713 11.4787H37.591L39.8992 15.667ZM52.5548 8.0295V11.4787H54.9537V14.2277H52.5548V21.2298C52.5548 21.7485 52.6543 22.1202 52.8531 22.345C53.0519 22.5697 53.4323 22.6821 53.9942 22.6821C54.4091 22.6821 54.7765 22.6518 55.0964 22.5913V25.4311C54.3616 25.6558 53.6052 25.7682 52.8272 25.7682C50.1992 25.7682 48.8593 24.4413 48.8074 21.7874V14.2277H46.7586V11.4787H48.8074V8.0295H52.5548Z" fill="white"/>
<path d="M72.9388 19.2199C72.7919 21.2514 72.0398 22.8507 70.6826 24.0177C69.334 25.1847 67.5532 25.7682 65.3402 25.7682C62.9197 25.7682 61.0136 24.9556 59.6218 23.3304C58.2387 21.6966 57.5471 19.4577 57.5471 16.6136V15.4595C57.5471 13.6442 57.8669 12.0449 58.5066 10.6618C59.1464 9.27864 60.0584 8.21968 61.2427 7.48489C62.4356 6.74145 63.8188 6.36973 65.3921 6.36973C67.5705 6.36973 69.3254 6.95325 70.6566 8.12027C71.9879 9.28729 72.7573 10.9254 72.9647 13.0347H69.0747C68.9796 11.8158 68.6381 10.9341 68.0503 10.3895C67.4711 9.83622 66.585 9.55959 65.3921 9.55959C64.0954 9.55959 63.1229 10.0264 62.4745 10.96C61.8348 11.885 61.5063 13.3243 61.489 15.278V16.7044C61.489 18.7445 61.7959 20.2357 62.4097 21.1779C63.0321 22.1202 64.0089 22.5913 65.3402 22.5913C66.5418 22.5913 67.4365 22.319 68.0244 21.7744C68.6208 21.2212 68.9623 20.3697 69.0487 19.2199H72.9388ZM74.6634 18.3641C74.6634 16.9723 74.9314 15.7318 75.4674 14.6426C76.0033 13.5534 76.7727 12.7105 77.7755 12.1141C78.7869 11.5176 79.9582 11.2194 81.2895 11.2194C83.1827 11.2194 84.7257 11.7985 85.9187 12.9569C87.1203 14.1153 87.7902 15.6886 87.9285 17.6769L87.9545 18.6364C87.9545 20.7889 87.3537 22.5178 86.1521 23.8232C84.9505 25.1199 83.3383 25.7682 81.3154 25.7682C79.2926 25.7682 77.6761 25.1199 76.4658 23.8232C75.2642 22.5265 74.6634 20.763 74.6634 18.5327V18.3641ZM78.4108 18.6364C78.4108 19.9677 78.6615 20.9878 79.1629 21.6966C79.6643 22.3968 80.3818 22.7469 81.3154 22.7469C82.2231 22.7469 82.932 22.4011 83.442 21.7096C83.952 21.0094 84.207 19.8942 84.207 18.3641C84.207 17.0588 83.952 16.0474 83.442 15.3299C82.932 14.6124 82.2145 14.2536 81.2895 14.2536C80.3732 14.2536 79.6643 14.6124 79.1629 15.3299C78.6615 16.0387 78.4108 17.1409 78.4108 18.6364ZM93.7766 11.4787L93.8933 13.0477C94.8875 11.8288 96.2317 11.2194 97.926 11.2194C99.7328 11.2194 100.973 11.9325 101.648 13.3589C102.633 11.9325 104.038 11.2194 105.862 11.2194C107.383 11.2194 108.516 11.6646 109.259 12.5549C110.003 13.4367 110.374 14.768 110.374 16.5488V25.5089H106.614V16.5617C106.614 15.7664 106.458 15.1872 106.147 14.8242C105.836 14.4524 105.287 14.2666 104.5 14.2666C103.376 14.2666 102.598 14.8025 102.166 15.8745L102.179 25.5089H98.4317V16.5747C98.4317 15.7621 98.2718 15.1743 97.952 14.8112C97.6321 14.4481 97.0875 14.2666 96.3181 14.2666C95.2548 14.2666 94.4855 14.7075 94.01 15.5892V25.5089H90.2626V11.4787H93.7766ZM116.78 11.4787L116.897 13.0477C117.891 11.8288 119.235 11.2194 120.929 11.2194C122.736 11.2194 123.977 11.9325 124.651 13.3589C125.636 11.9325 127.041 11.2194 128.865 11.2194C130.387 11.2194 131.519 11.6646 132.262 12.5549C133.006 13.4367 133.378 14.768 133.378 16.5488V25.5089H129.617V16.5617C129.617 15.7664 129.462 15.1872 129.15 14.8242C128.839 14.4524 128.29 14.2666 127.504 14.2666C126.38 14.2666 125.602 14.8025 125.169 15.8745L125.182 25.5089H121.435V16.5747C121.435 15.7621 121.275 15.1743 120.955 14.8112C120.635 14.4481 120.091 14.2666 119.321 14.2666C118.258 14.2666 117.489 14.7075 117.013 15.5892V25.5089H113.266V11.4787H116.78ZM142.727 25.7682C140.669 25.7682 138.992 25.1372 137.696 23.8751C136.407 22.6129 135.763 20.9316 135.763 18.8309V18.4679C135.763 17.0588 136.036 15.801 136.58 14.6945C137.125 13.5793 137.894 12.7235 138.888 12.127C139.891 11.5219 141.032 11.2194 142.312 11.2194C144.231 11.2194 145.739 11.8245 146.837 13.0347C147.944 14.245 148.497 15.9609 148.497 18.1826V19.7127H139.563C139.684 20.629 140.047 21.3638 140.652 21.917C141.266 22.4703 142.039 22.7469 142.973 22.7469C144.417 22.7469 145.545 22.2239 146.357 21.1779L148.199 23.2397C147.637 24.035 146.876 24.6574 145.917 25.1069C144.957 25.5478 143.894 25.7682 142.727 25.7682ZM142.299 14.2536C141.555 14.2536 140.95 14.5043 140.483 15.0057C140.025 15.5071 139.731 16.2246 139.602 17.1582H144.814V16.86C144.797 16.0301 144.572 15.3904 144.14 14.9409C143.708 14.4827 143.094 14.2536 142.299 14.2536ZM158.52 14.9927C158.01 14.9236 157.561 14.889 157.172 14.889C155.754 14.889 154.825 15.3688 154.384 16.3283V25.5089H150.636V11.4787H154.176L154.28 13.1514C155.032 11.8634 156.074 11.2194 157.405 11.2194C157.82 11.2194 158.209 11.2755 158.572 11.3879L158.52 14.9927ZM165.911 22.7469C166.603 22.7469 167.165 22.5567 167.597 22.1764C168.029 21.796 168.254 21.2903 168.271 20.6593H171.785C171.777 21.6102 171.518 22.4833 171.007 23.2786C170.497 24.0652 169.797 24.679 168.907 25.1199C168.025 25.5521 167.048 25.7682 165.976 25.7682C163.971 25.7682 162.389 25.1328 161.23 23.8621C160.072 22.5827 159.493 20.8192 159.493 18.5716V18.3252C159.493 16.1641 160.068 14.4395 161.217 13.1514C162.367 11.8634 163.945 11.2194 165.95 11.2194C167.705 11.2194 169.11 11.7207 170.165 12.7235C171.228 13.7176 171.768 15.0446 171.785 16.7044H168.271C168.254 15.9782 168.029 15.3904 167.597 14.9409C167.165 14.4827 166.594 14.2536 165.886 14.2536C165.012 14.2536 164.351 14.5735 163.902 15.2132C163.461 15.8442 163.24 16.8729 163.24 18.2993V18.6883C163.24 20.1319 163.461 21.1693 163.902 21.8003C164.342 22.4314 165.012 22.7469 165.911 22.7469ZM180.383 25.7682C178.325 25.7682 176.648 25.1372 175.351 23.8751C174.063 22.6129 173.419 20.9316 173.419 18.8309V18.4679C173.419 17.0588 173.692 15.801 174.236 14.6945C174.781 13.5793 175.55 12.7235 176.544 12.127C177.547 11.5219 178.688 11.2194 179.968 11.2194C181.887 11.2194 183.395 11.8245 184.493 13.0347C185.6 14.245 186.153 15.9609 186.153 18.1826V19.7127H177.219C177.34 20.629 177.703 21.3638 178.308 21.917C178.922 22.4703 179.695 22.7469 180.629 22.7469C182.073 22.7469 183.201 22.2239 184.013 21.1779L185.855 23.2397C185.293 24.035 184.532 24.6574 183.572 25.1069C182.613 25.5478 181.55 25.7682 180.383 25.7682ZM179.955 14.2536C179.211 14.2536 178.606 14.5043 178.139 15.0057C177.681 15.5071 177.387 16.2246 177.258 17.1582H182.47V16.86C182.453 16.0301 182.228 15.3904 181.796 14.9409C181.364 14.4827 180.75 14.2536 179.955 14.2536Z" fill="#FF3C20"/>
</svg>
