<svg width="132" height="22" viewBox="0 0 108 18" fill="none" xmlns="http://www.w3.org/2000/svg">
<path d="M9.84047 14.1428H7.59382L3.2203 6.92572V14.1428H0.973633V3.17407H3.2203L7.60129 10.4062V3.17407H9.84047V14.1428ZM15.3898 14.2935C14.2016 14.2935 13.233 13.9269 12.4841 13.1936C11.7402 12.4603 11.3683 11.4835 11.3683 10.2631V10.0521C11.3683 9.23352 11.5255 8.50278 11.84 7.85992C12.1545 7.21205 12.5989 6.7148 13.1731 6.36827C13.7522 6.01671 14.4112 5.84093 15.1501 5.84093C16.2585 5.84093 17.1297 6.19249 17.7638 6.89564C18.4028 7.59873 18.7224 8.59567 18.7224 9.8864V10.7753H13.5625C13.6324 11.3077 13.8421 11.7346 14.1915 12.056C14.546 12.3775 14.9928 12.5382 15.5321 12.5382C16.3658 12.5382 17.0174 12.2343 17.4867 11.6266L18.5501 12.8245C18.2256 13.2865 17.7862 13.6481 17.232 13.9093C16.6779 14.1655 16.0638 14.2935 15.3898 14.2935ZM15.1426 7.60374C14.7133 7.60374 14.3638 7.74942 14.0942 8.04069C13.8296 8.33197 13.6598 8.74887 13.5849 9.29124H16.5955V9.11799C16.5855 8.63585 16.4557 8.26422 16.2061 8.00302C15.9565 7.73688 15.602 7.60374 15.1426 7.60374ZM23.0434 8.42493L24.4064 5.99159H26.7205L24.4139 9.98431L26.8178 14.1428H24.4963L23.0509 11.5814L21.613 14.1428H19.284L21.6879 9.98431L19.3888 5.99159H21.7104L23.0434 8.42493ZM30.3526 3.98769V5.99159H31.7381V7.5887H30.3526V11.6568C30.3526 11.9581 30.41 12.1741 30.5248 12.3046C30.6397 12.4353 30.8594 12.5005 31.1839 12.5005C31.4235 12.5005 31.6357 12.483 31.8205 12.4478V14.0976C31.3961 14.2282 30.9592 14.2935 30.5099 14.2935C28.9921 14.2935 28.2182 13.5226 28.1883 11.9807V7.5887H27.0051V5.99159H28.1883V3.98769H30.3526Z" fill="white"/>
<path d="M42.1252 10.4891C42.0403 11.6693 41.606 12.5985 40.8221 13.2765C40.0433 13.9545 39.0148 14.2935 37.7367 14.2935C36.3388 14.2935 35.2379 13.8214 34.4341 12.8772C33.6352 11.928 33.2358 10.6272 33.2358 8.97487V8.30443C33.2358 7.2497 33.4206 6.32059 33.79 5.51702C34.1595 4.71345 34.6862 4.09822 35.3702 3.67132C36.0592 3.2394 36.858 3.02344 37.7667 3.02344C39.0248 3.02344 40.0382 3.36245 40.8071 4.04046C41.576 4.71847 42.0203 5.6702 42.1401 6.89567H39.8935C39.8385 6.1875 39.6413 5.67522 39.3019 5.35882C38.9674 5.03739 38.4556 4.87668 37.7667 4.87668C37.0178 4.87668 36.4561 5.14788 36.0816 5.69029C35.7122 6.22768 35.5224 7.06391 35.5125 8.19894V9.02765C35.5125 10.2129 35.6897 11.0793 36.0442 11.6267C36.4036 12.1741 36.9678 12.4478 37.7367 12.4478C38.4306 12.4478 38.9474 12.2896 39.2869 11.9732C39.6314 11.6518 39.8286 11.1571 39.8785 10.4891H42.1252ZM43.1212 9.99193C43.1212 9.18335 43.276 8.46264 43.5855 7.82981C43.8951 7.19698 44.3394 6.70732 44.9186 6.36077C45.5027 6.01423 46.1792 5.84097 46.948 5.84097C48.0414 5.84097 48.9326 6.17746 49.6215 6.85042C50.3156 7.52343 50.7024 8.4375 50.7823 9.59265L50.7973 10.1501C50.7973 11.4007 50.4503 12.4052 49.7564 13.1635C49.0624 13.9168 48.1313 14.2935 46.963 14.2935C45.7948 14.2935 44.8611 13.9168 44.1622 13.1635C43.4682 12.4102 43.1212 11.3856 43.1212 10.0898V9.99193ZM45.2855 10.1501C45.2855 10.9236 45.4303 11.5162 45.7199 11.928C46.0094 12.3348 46.4238 12.5382 46.963 12.5382C47.4872 12.5382 47.8966 12.3373 48.1912 11.9355C48.4858 11.5287 48.6331 10.8809 48.6331 9.99193C48.6331 9.23355 48.4858 8.64592 48.1912 8.22909C47.8966 7.8122 47.4823 7.60378 46.948 7.60378C46.4188 7.60378 46.0094 7.8122 45.7199 8.22909C45.4303 8.6409 45.2855 9.28125 45.2855 10.1501ZM54.1598 5.99163L54.2273 6.9032C54.8014 6.19504 55.5778 5.84097 56.5563 5.84097C57.5997 5.84097 58.3162 6.25531 58.7056 7.08397C59.2748 6.25531 60.086 5.84097 61.1395 5.84097C62.0182 5.84097 62.6722 6.09961 63.1016 6.61693C63.531 7.12916 63.7456 7.90265 63.7456 8.9372V14.1429H61.5739V8.94478C61.5739 8.4827 61.484 8.14622 61.3043 7.9353C61.1245 7.7193 60.8075 7.6113 60.3532 7.6113C59.7041 7.6113 59.2548 7.9227 59.0051 8.5455L59.0127 14.1429H56.8483V8.9523C56.8483 8.48019 56.756 8.1387 56.5712 7.92772C56.3866 7.7168 56.072 7.6113 55.6277 7.6113C55.0136 7.6113 54.5692 7.86748 54.2946 8.37978V14.1429H52.1303V5.99163H54.1598ZM67.4451 5.99163L67.5129 6.9032C68.0867 6.19504 68.8632 5.84097 69.8416 5.84097C70.8851 5.84097 71.6015 6.25531 71.9907 7.08397C72.5601 6.25531 73.3711 5.84097 74.4249 5.84097C75.3036 5.84097 75.9573 6.09961 76.3867 6.61693C76.8162 7.12916 77.0309 7.90265 77.0309 8.9372V14.1429H74.8594V8.94478C74.8594 8.4827 74.7693 8.14622 74.5897 7.9353C74.4102 7.7193 74.0926 7.6113 73.6382 7.6113C72.9895 7.6113 72.5403 7.9227 72.2904 8.5455L72.2981 14.1429H70.1336V8.9523C70.1336 8.48019 70.0416 8.1387 69.8563 7.92772C69.6716 7.7168 69.3572 7.6113 68.913 7.6113C68.2989 7.6113 67.8548 7.86748 67.58 8.37978V14.1429H65.4155V5.99163H67.4451ZM82.4303 14.2935C81.2423 14.2935 80.2735 13.9269 79.5245 13.1936C78.7806 12.4604 78.4087 11.4836 78.4087 10.2631V10.0522C78.4087 9.23355 78.5659 8.50282 78.881 7.85996C79.1954 7.21209 79.6395 6.71484 80.214 6.36831C80.793 6.01675 81.4519 5.84097 82.1906 5.84097C83.2994 5.84097 84.1704 6.19252 84.8044 6.89567C85.4434 7.59877 85.7629 8.59571 85.7629 9.88644V10.7754H80.6032C80.6729 11.3077 80.8825 11.7347 81.2321 12.0561C81.5867 12.3775 82.0334 12.5382 82.5728 12.5382C83.4068 12.5382 84.058 12.2343 84.5277 11.6267L85.591 12.8245C85.2664 13.2866 84.8267 13.6482 84.2727 13.9093C83.7186 14.1655 83.1045 14.2935 82.4303 14.2935ZM82.1836 7.60378C81.7542 7.60378 81.4046 7.74945 81.1349 8.04073C80.8704 8.33201 80.7004 8.7489 80.6256 9.29128H83.6362V9.11803C83.6259 8.63589 83.4962 8.26425 83.247 8.00306C82.9971 7.73692 82.6425 7.60378 82.1836 7.60378ZM91.5521 8.03321C91.2575 7.99303 90.9981 7.97291 90.7731 7.97291C89.9545 7.97291 89.4177 8.25165 89.1627 8.80914V14.1429H86.9989V5.99163H89.0432L89.1033 6.96343C89.5372 6.21513 90.1392 5.84097 90.908 5.84097C91.1476 5.84097 91.3719 5.87361 91.5822 5.9389L91.5521 8.03321ZM95.8204 12.5382C96.2198 12.5382 96.5444 12.4277 96.7943 12.2068C97.0435 11.9858 97.1739 11.692 97.1835 11.3253H99.2131C99.208 11.8778 99.0584 12.385 98.7638 12.8471C98.4692 13.3041 98.0647 13.6607 97.5503 13.9168C97.0416 14.168 96.4773 14.2935 95.8581 14.2935C94.7001 14.2935 93.7863 13.9244 93.1172 13.1861C92.4481 12.4428 92.1139 11.4182 92.1139 10.1125V9.9693C92.1139 8.71374 92.4455 7.71178 93.1095 6.96343C93.7735 6.21513 94.6848 5.84097 95.8434 5.84097C96.8563 5.84097 97.6679 6.13226 98.2769 6.71484C98.891 7.29245 99.2029 8.06336 99.2131 9.02765H97.1835C97.1739 8.60574 97.0435 8.26425 96.7943 8.00306C96.5444 7.73692 96.2153 7.60378 95.8057 7.60378C95.3015 7.60378 94.9193 7.78963 94.6598 8.16127C94.4055 8.52789 94.2777 9.12555 94.2777 9.95426V10.1802C94.2777 11.019 94.4055 11.6216 94.6598 11.9883C94.9142 12.3549 95.3014 12.5382 95.8204 12.5382ZM104.179 14.2935C102.99 14.2935 102.022 13.9269 101.273 13.1936C100.529 12.4604 100.157 11.4836 100.157 10.2631V10.0522C100.157 9.23355 100.314 8.50282 100.629 7.85996C100.943 7.21209 101.387 6.71484 101.962 6.36831C102.541 6.01675 103.2 5.84097 103.939 5.84097C105.047 5.84097 105.918 6.19252 106.552 6.89567C107.191 7.59877 107.511 8.59571 107.511 9.88644V10.7754H102.351C102.421 11.3077 102.631 11.7347 102.98 12.0561C103.334 12.3775 103.781 12.5382 104.32 12.5382C105.154 12.5382 105.806 12.2343 106.275 11.6267L107.339 12.8245C107.014 13.2866 106.575 13.6482 106.02 13.9093C105.466 14.1655 104.852 14.2935 104.179 14.2935ZM103.931 7.60378C103.502 7.60378 103.152 7.74945 102.883 8.04073C102.618 8.33201 102.448 8.7489 102.373 9.29128H105.384V9.11803C105.374 8.63589 105.244 8.26425 104.995 8.00306C104.745 7.73692 104.391 7.60378 103.931 7.60378Z" fill="#FF3C20"/>
</svg>
