<svg width="20" height="20" viewBox="0 0 20 20" fill="none" xmlns="http://www.w3.org/2000/svg">
<path d="M9.86 9.98203C9.893 9.97003 9.928 9.96103 9.963 9.95103C9.87429 9.75434 9.78126 9.55963 9.684 9.36702C7.804 9.92402 6.004 9.92902 5.683 9.92402C5.68 9.94902 5.68 9.97503 5.68 10C5.68 10.945 6.02 11.853 6.638 12.566C6.844 12.234 7.936 10.605 9.86 9.98203ZM7.223 13.113C7.76691 13.5298 8.41074 13.7965 9.09007 13.8864C9.76941 13.9762 10.4604 13.8861 11.094 13.625C10.9103 12.6279 10.6351 11.6497 10.272 10.703C8.151 11.453 7.35 12.865 7.223 13.113ZM12.155 7.02702C11.6928 6.62999 11.1444 6.34617 10.5533 6.1981C9.96225 6.05003 9.34481 6.04179 8.75 6.17402C9.27189 6.88307 9.74658 7.62567 10.171 8.39702C11.454 7.90402 12.034 7.19302 12.155 7.02702ZM9.305 8.66402C8.87399 7.90822 8.4016 7.17678 7.89 6.47302C7.36182 6.73038 6.89792 7.10266 6.5323 7.56258C6.16668 8.02251 5.90861 8.55841 5.777 9.13102H5.794C6.2 9.13102 7.643 9.09802 9.305 8.66402ZM11.114 10.496C11.579 11.789 11.793 12.863 11.854 13.207C12.7062 12.6062 13.285 11.6915 13.463 10.664C12.9451 10.517 12.4093 10.4426 11.871 10.443C11.613 10.443 11.358 10.461 11.114 10.496ZM9.6 0.400024C4.298 0.400024 0 4.69802 0 10C0 15.302 4.298 19.6 9.6 19.6C14.902 19.6 19.2 15.302 19.2 10C19.2 4.69802 14.902 0.400024 9.6 0.400024ZM9.6 14.697C8.35442 14.696 7.16013 14.2008 6.27918 13.3203C5.39823 12.4397 4.90259 11.2456 4.901 10C4.90206 8.7541 5.39747 7.5595 6.27847 6.6785C7.15948 5.7975 8.35407 5.30208 9.6 5.30102C10.8457 5.30261 12.0399 5.79823 12.9206 6.67914C13.8013 7.56006 14.2967 8.75435 14.298 10C14.2967 11.2455 13.8013 12.4396 12.9205 13.3202C12.0397 14.2008 10.8455 14.696 9.6 14.697ZM10.522 9.07403C10.609 9.25403 10.69 9.43102 10.764 9.60502L10.835 9.77502C11.112 9.74202 11.408 9.72602 11.717 9.72602C12.3214 9.72724 12.9243 9.78482 13.518 9.89802C13.4952 9.04629 13.1962 8.22504 12.666 7.55802C12.506 7.76402 11.848 8.52102 10.522 9.07403Z" fill="black"/>
</svg>
