<svg width="18" height="18" viewBox="0 0 18 18" fill="none" xmlns="http://www.w3.org/2000/svg">
<path d="M15.9351 0.5H2.71289C1.67401 0.5 0.824005 1.35 0.824005 2.38889V15.6111C0.824005 16.6509 1.67401 17.5 2.71289 17.5H9.32401V10.8889H7.43512V8.55139H9.32401V6.61528C9.32401 4.5715 10.4687 3.13594 12.8808 3.13594L14.5836 3.13783V5.59811H13.4531C12.5143 5.59811 12.1573 6.30267 12.1573 6.95622V8.55233H14.5827L14.0462 10.8889H12.1573V17.5H15.9351C16.974 17.5 17.824 16.6509 17.824 15.6111V2.38889C17.824 1.35 16.974 0.5 15.9351 0.5Z" fill="black"/>
</svg>
