<svg width="18" height="18" viewBox="0 0 18 18" fill="none" xmlns="http://www.w3.org/2000/svg">
<path d="M17.4525 7.45581H9.35699V10.7354H14.0202C13.5858 12.825 11.7683 14.0221 9.35699 14.0221C7.9954 14.0221 6.68957 13.493 5.72677 12.5511C4.76398 11.6093 4.22308 10.3319 4.22308 8.99998C4.22308 7.66804 4.76398 6.39065 5.72677 5.44883C6.68957 4.50701 7.9954 3.97789 9.35699 3.97789C10.5237 3.9795 11.6542 4.37479 12.5575 5.09706L15.0847 2.62498C14.0296 1.71476 12.7644 1.06874 11.3977 0.742429C10.0311 0.416115 8.6039 0.419264 7.23877 0.751606C5.87365 1.08395 4.61143 1.73554 3.56056 2.6504C2.50969 3.56527 1.7016 4.71604 1.20573 6.00383C0.709859 7.29163 0.541033 8.67794 0.713758 10.0436C0.886484 11.4094 1.3956 12.7136 2.19735 13.8444C2.9991 14.9751 4.06952 15.8986 5.31663 16.5353C6.56373 17.1721 7.95023 17.5031 9.35699 17.5C13.7016 17.5 17.648 14.4116 17.648 8.99998C17.6437 8.47962 17.5781 7.96148 17.4525 7.45581Z" fill="black"/>
</svg>
