<svg width="17" height="16" viewBox="0 0 17 16" fill="none" xmlns="http://www.w3.org/2000/svg">
<path fill-rule="evenodd" clip-rule="evenodd" d="M16.376 16.0004H13.0605V10.8036C13.0605 9.56364 13.0397 7.97004 11.3381 7.97004C9.61329 7.97004 9.34978 9.32044 9.34978 10.714V16.0004H6.0375V5.31244H9.21562V6.77404H9.26194C9.70352 5.93404 10.7855 5.04764 12.3985 5.04764C15.7555 5.04764 16.3752 7.26044 16.3752 10.1388V16.0004H16.376ZM2.29962 3.85324C2.04694 3.85345 1.79671 3.80374 1.56322 3.70696C1.32974 3.61019 1.1176 3.46824 0.93893 3.28924C0.760262 3.11024 0.618575 2.8977 0.521978 2.66379C0.42538 2.42988 0.375767 2.17918 0.375977 1.92603C0.375977 1.5451 0.48871 1.17271 0.699924 0.85595C0.911138 0.53919 1.21135 0.292278 1.56261 0.146426C1.91387 0.000574494 2.30041 -0.037668 2.67336 0.036533C3.04631 0.110734 3.38893 0.294047 3.65791 0.563299C3.92689 0.832551 4.11015 1.17565 4.18452 1.54923C4.25889 1.92281 4.22104 2.3101 4.07575 2.66213C3.93046 3.01416 3.68426 3.31513 3.36826 3.527C3.05226 3.73887 2.68065 3.85212 2.30042 3.85244L2.29962 3.85324ZM3.95815 16.0004H0.63949V5.31244H3.95815V16.0004Z" fill="black"/>
</svg>
