<svg width="19" height="16" viewBox="0 0 19 16" fill="none" xmlns="http://www.w3.org/2000/svg">
<path d="M16.3611 3.01702C17.1291 2.55792 17.7037 1.83501 17.9777 0.983264C17.2561 1.41145 16.4666 1.71306 15.6432 1.87507C15.088 1.28768 14.3549 0.89924 13.5571 0.76961C12.7593 0.63998 11.9409 0.776361 11.2283 1.15773C10.5156 1.5391 9.94815 2.14429 9.61339 2.88C9.27862 3.61572 9.19513 4.44111 9.37579 5.22896C7.91419 5.15558 6.48436 4.77567 5.17911 4.1139C3.87385 3.45212 2.72234 2.52326 1.79933 1.38762C1.32992 2.19727 1.18628 3.15523 1.39758 4.06694C1.60889 4.97866 2.15928 5.77577 2.93699 6.29638C2.35335 6.27762 1.78264 6.1196 1.27247 5.83549V5.88175C1.27263 6.7307 1.56642 7.55345 2.10401 8.21049C2.64161 8.86753 3.38991 9.31841 4.22201 9.48665C3.68065 9.63394 3.11279 9.65562 2.56177 9.55005C2.79712 10.2802 3.25457 10.9187 3.87027 11.3763C4.48596 11.834 5.22918 12.088 5.99619 12.103C4.6939 13.1251 3.08561 13.6794 1.4301 13.6767C1.13626 13.6767 0.843273 13.6595 0.552002 13.6261C2.23316 14.7064 4.18978 15.2798 6.18809 15.2778C7.56443 15.2873 8.92894 15.0231 10.2023 14.5008C11.4757 13.9784 12.6326 13.2082 13.6058 12.2349C14.579 11.2616 15.3491 10.1046 15.8714 8.8312C16.3937 7.55777 16.6577 6.19324 16.6481 4.8169C16.6481 4.65756 16.6447 4.49907 16.637 4.34144C17.357 3.82111 17.9784 3.1765 18.472 2.4379C17.8012 2.73521 17.0897 2.93042 16.3611 3.01702Z" fill="black"/>
</svg>
