<svg width="169" height="28" viewBox="0 0 169 28" fill="none" xmlns="http://www.w3.org/2000/svg">
<path d="M15.3984 22H11.8828L5.03906 10.7734V22H1.52344V4.9375H5.03906L11.8945 16.1875V4.9375H15.3984V22ZM24.082 22.2344C22.2227 22.2344 20.707 21.6641 19.5352 20.5234C18.3711 19.3828 17.7891 17.8633 17.7891 15.9648V15.6367C17.7891 14.3633 18.0352 13.2266 18.5273 12.2266C19.0195 11.2188 19.7148 10.4453 20.6133 9.90625C21.5195 9.35938 22.5508 9.08594 23.707 9.08594C25.4414 9.08594 26.8047 9.63281 27.7969 10.7266C28.7969 11.8203 29.2969 13.3711 29.2969 15.3789V16.7617H21.2227C21.332 17.5898 21.6602 18.2539 22.207 18.7539C22.7617 19.2539 23.4609 19.5039 24.3047 19.5039C25.6094 19.5039 26.6289 19.0312 27.3633 18.0859L29.0273 19.9492C28.5195 20.668 27.832 21.2305 26.9648 21.6367C26.0977 22.0352 25.1367 22.2344 24.082 22.2344ZM23.6953 11.8281C23.0234 11.8281 22.4766 12.0547 22.0547 12.5078C21.6406 12.9609 21.375 13.6094 21.2578 14.4531H25.9688V14.1836C25.9531 13.4336 25.75 12.8555 25.3594 12.4492C24.9688 12.0352 24.4141 11.8281 23.6953 11.8281ZM36.0586 13.1055L38.1914 9.32031H41.8125L38.2031 15.5312L41.9648 22H38.332L36.0703 18.0156L33.8203 22H30.1758L33.9375 15.5312L30.3398 9.32031H33.9727L36.0586 13.1055ZM47.4961 6.20312V9.32031H49.6641V11.8047H47.4961V18.1328C47.4961 18.6016 47.5859 18.9375 47.7656 19.1406C47.9453 19.3438 48.2891 19.4453 48.7969 19.4453C49.1719 19.4453 49.5039 19.418 49.793 19.3633V21.9297C49.1289 22.1328 48.4453 22.2344 47.7422 22.2344C45.3672 22.2344 44.1562 21.0352 44.1094 18.6367V11.8047H42.2578V9.32031H44.1094V6.20312H47.4961Z" fill="black"/>
<path d="M65.918 16.3164C65.7852 18.1523 65.1055 19.5977 63.8789 20.6523C62.6602 21.707 61.0508 22.2344 59.0508 22.2344C56.8633 22.2344 55.1406 21.5 53.8828 20.0312C52.6328 18.5547 52.0078 16.5312 52.0078 13.9609V12.918C52.0078 11.2773 52.2969 9.83203 52.875 8.58203C53.4531 7.33203 54.2773 6.375 55.3477 5.71094C56.4258 5.03906 57.6758 4.70312 59.0977 4.70312C61.0664 4.70312 62.6523 5.23047 63.8555 6.28516C65.0586 7.33984 65.7539 8.82031 65.9414 10.7266H62.4258C62.3398 9.625 62.0312 8.82812 61.5 8.33594C60.9766 7.83594 60.1758 7.58594 59.0977 7.58594C57.9258 7.58594 57.0469 8.00781 56.4609 8.85156C55.8828 9.6875 55.5859 10.9883 55.5703 12.7539V14.043C55.5703 15.8867 55.8477 17.2344 56.4023 18.0859C56.9648 18.9375 57.8477 19.3633 59.0508 19.3633C60.1367 19.3633 60.9453 19.1172 61.4766 18.625C62.0156 18.125 62.3242 17.3555 62.4023 16.3164H65.918ZM67.4766 15.543C67.4766 14.2852 67.7188 13.1641 68.2031 12.1797C68.6875 11.1953 69.3828 10.4336 70.2891 9.89453C71.2031 9.35547 72.2617 9.08594 73.4648 9.08594C75.1758 9.08594 76.5703 9.60938 77.6484 10.6562C78.7344 11.7031 79.3398 13.125 79.4648 14.9219L79.4883 15.7891C79.4883 17.7344 78.9453 19.2969 77.8594 20.4766C76.7734 21.6484 75.3164 22.2344 73.4883 22.2344C71.6602 22.2344 70.1992 21.6484 69.1055 20.4766C68.0195 19.3047 67.4766 17.7109 67.4766 15.6953V15.543ZM70.8633 15.7891C70.8633 16.9922 71.0898 17.9141 71.543 18.5547C71.9961 19.1875 72.6445 19.5039 73.4883 19.5039C74.3086 19.5039 74.9492 19.1914 75.4102 18.5664C75.8711 17.9336 76.1016 16.9258 76.1016 15.543C76.1016 14.3633 75.8711 13.4492 75.4102 12.8008C74.9492 12.1523 74.3008 11.8281 73.4648 11.8281C72.6367 11.8281 71.9961 12.1523 71.543 12.8008C71.0898 13.4414 70.8633 14.4375 70.8633 15.7891ZM84.75 9.32031L84.8555 10.7383C85.7539 9.63672 86.9688 9.08594 88.5 9.08594C90.1328 9.08594 91.2539 9.73047 91.8633 11.0195C92.7539 9.73047 94.0234 9.08594 95.6719 9.08594C97.0469 9.08594 98.0703 9.48828 98.7422 10.293C99.4141 11.0898 99.75 12.293 99.75 13.9023V22H96.3516V13.9141C96.3516 13.1953 96.2109 12.6719 95.9297 12.3438C95.6484 12.0078 95.1523 11.8398 94.4414 11.8398C93.4258 11.8398 92.7227 12.3242 92.332 13.293L92.3438 22H88.957V13.9258C88.957 13.1914 88.8125 12.6602 88.5234 12.332C88.2344 12.0039 87.7422 11.8398 87.0469 11.8398C86.0859 11.8398 85.3906 12.2383 84.9609 13.0352V22H81.5742V9.32031H84.75ZM105.539 9.32031L105.645 10.7383C106.543 9.63672 107.758 9.08594 109.289 9.08594C110.922 9.08594 112.043 9.73047 112.652 11.0195C113.543 9.73047 114.812 9.08594 116.461 9.08594C117.836 9.08594 118.859 9.48828 119.531 10.293C120.203 11.0898 120.539 12.293 120.539 13.9023V22H117.141V13.9141C117.141 13.1953 117 12.6719 116.719 12.3438C116.438 12.0078 115.941 11.8398 115.23 11.8398C114.215 11.8398 113.512 12.3242 113.121 13.293L113.133 22H109.746V13.9258C109.746 13.1914 109.602 12.6602 109.312 12.332C109.023 12.0039 108.531 11.8398 107.836 11.8398C106.875 11.8398 106.18 12.2383 105.75 13.0352V22H102.363V9.32031H105.539ZM128.988 22.2344C127.129 22.2344 125.613 21.6641 124.441 20.5234C123.277 19.3828 122.695 17.8633 122.695 15.9648V15.6367C122.695 14.3633 122.941 13.2266 123.434 12.2266C123.926 11.2188 124.621 10.4453 125.52 9.90625C126.426 9.35938 127.457 9.08594 128.613 9.08594C130.348 9.08594 131.711 9.63281 132.703 10.7266C133.703 11.8203 134.203 13.3711 134.203 15.3789V16.7617H126.129C126.238 17.5898 126.566 18.2539 127.113 18.7539C127.668 19.2539 128.367 19.5039 129.211 19.5039C130.516 19.5039 131.535 19.0312 132.27 18.0859L133.934 19.9492C133.426 20.668 132.738 21.2305 131.871 21.6367C131.004 22.0352 130.043 22.2344 128.988 22.2344ZM128.602 11.8281C127.93 11.8281 127.383 12.0547 126.961 12.5078C126.547 12.9609 126.281 13.6094 126.164 14.4531H130.875V14.1836C130.859 13.4336 130.656 12.8555 130.266 12.4492C129.875 12.0352 129.32 11.8281 128.602 11.8281ZM143.262 12.4961C142.801 12.4336 142.395 12.4023 142.043 12.4023C140.762 12.4023 139.922 12.8359 139.523 13.7031V22H136.137V9.32031H139.336L139.43 10.832C140.109 9.66797 141.051 9.08594 142.254 9.08594C142.629 9.08594 142.98 9.13672 143.309 9.23828L143.262 12.4961ZM149.941 19.5039C150.566 19.5039 151.074 19.332 151.465 18.9883C151.855 18.6445 152.059 18.1875 152.074 17.6172H155.25C155.242 18.4766 155.008 19.2656 154.547 19.9844C154.086 20.6953 153.453 21.25 152.648 21.6484C151.852 22.0391 150.969 22.2344 150 22.2344C148.188 22.2344 146.758 21.6602 145.711 20.5117C144.664 19.3555 144.141 17.7617 144.141 15.7305V15.5078C144.141 13.5547 144.66 11.9961 145.699 10.832C146.738 9.66797 148.164 9.08594 149.977 9.08594C151.562 9.08594 152.832 9.53906 153.785 10.4453C154.746 11.3438 155.234 12.543 155.25 14.043H152.074C152.059 13.3867 151.855 12.8555 151.465 12.4492C151.074 12.0352 150.559 11.8281 149.918 11.8281C149.129 11.8281 148.531 12.1172 148.125 12.6953C147.727 13.2656 147.527 14.1953 147.527 15.4844V15.8359C147.527 17.1406 147.727 18.0781 148.125 18.6484C148.523 19.2188 149.129 19.5039 149.941 19.5039ZM163.02 22.2344C161.16 22.2344 159.645 21.6641 158.473 20.5234C157.309 19.3828 156.727 17.8633 156.727 15.9648V15.6367C156.727 14.3633 156.973 13.2266 157.465 12.2266C157.957 11.2188 158.652 10.4453 159.551 9.90625C160.457 9.35938 161.488 9.08594 162.645 9.08594C164.379 9.08594 165.742 9.63281 166.734 10.7266C167.734 11.8203 168.234 13.3711 168.234 15.3789V16.7617H160.16C160.27 17.5898 160.598 18.2539 161.145 18.7539C161.699 19.2539 162.398 19.5039 163.242 19.5039C164.547 19.5039 165.566 19.0312 166.301 18.0859L167.965 19.9492C167.457 20.668 166.77 21.2305 165.902 21.6367C165.035 22.0352 164.074 22.2344 163.02 22.2344ZM162.633 11.8281C161.961 11.8281 161.414 12.0547 160.992 12.5078C160.578 12.9609 160.312 13.6094 160.195 14.4531H164.906V14.1836C164.891 13.4336 164.688 12.8555 164.297 12.4492C163.906 12.0352 163.352 11.8281 162.633 11.8281Z" fill="#FF3C20"/>
</svg>
